<svg version="1.1" id="Capa_1" xmlns="http://www.w3.org/2000/svg" xmlns:xlink="http://www.w3.org/1999/xlink" x="0px" y="0px"
	 viewBox="0 0 296.999 296.999" style="enable-background:new 0 0 296.999 296.999;" xml:space="preserve">
<g>
	<path d="M157.222,5.041C155.424,1.922,152.099,0,148.499,0s-6.926,1.922-8.724,5.041L96.626,79.939
		c-1.794,3.115-1.792,6.95,0.007,10.063c1.8,3.112,5.121,5.029,8.717,5.029h86.301c0.006-0.001,0.012-0.001,0.02,0
		c5.561,0,10.067-4.507,10.067-10.066c0-2.05-0.611-3.956-1.664-5.547L157.222,5.041z"/>
	<path d="M191.65,201.968h-86.301c-3.596,0-6.917,1.917-8.717,5.029c-1.799,3.112-1.801,6.947-0.007,10.063l43.151,74.898
		c1.798,3.119,5.123,5.041,8.724,5.041c3.601,0,6.926-1.922,8.724-5.041l43.149-74.898c1.794-3.115,1.792-6.95-0.007-10.063
		C198.567,203.885,195.246,201.968,191.65,201.968z"/>
	<path d="M291.949,139.777l-74.893-43.154c-3.114-1.796-6.95-1.794-10.063,0.006c-3.112,1.8-5.029,5.121-5.029,8.717v86.307
		c0,3.596,1.917,6.917,5.029,8.717c1.558,0.9,3.297,1.351,5.037,1.351c1.735,0,3.471-0.448,5.025-1.345l74.893-43.154
		c3.119-1.797,5.041-5.121,5.041-8.722C296.99,144.898,295.068,141.574,291.949,139.777z"/>
	<path d="M90.005,96.629c-3.113-1.8-6.948-1.802-10.064-0.006L5.049,139.779c-3.118,1.797-5.04,5.122-5.04,8.722
		c0,3.601,1.922,6.926,5.041,8.723l74.893,43.152c1.555,0.895,3.29,1.344,5.025,1.344c1.739,0,3.479-0.45,5.037-1.351
		c3.112-1.8,5.029-5.121,5.029-8.717v-86.307C95.035,101.75,93.118,98.429,90.005,96.629z"/>
</g>
<g>
</g>
<g>
</g>
<g>
</g>
<g>
</g>
<g>
</g>
<g>
</g>
<g>
</g>
<g>
</g>
<g>
</g>
<g>
</g>
<g>
</g>
<g>
</g>
<g>
</g>
<g>
</g>
<g>
</g>
</svg>
